<svg width="33" height="33" viewBox="0 0 33 33" fill="none" xmlns="http://www.w3.org/2000/svg">
<path d="M30.643 0H2.35003C1.72313 0.00449443 1.12362 0.257505 0.683046 0.703513C0.242476 1.14952 -0.00316363 1.75209 3.07703e-05 2.379V30.621C-0.00316363 31.2479 0.242476 31.8505 0.683046 32.2965C1.12362 32.7425 1.72313 32.9955 2.35003 33H30.643C31.2706 32.9955 31.8708 32.7427 32.3125 32.2969C32.7542 31.8511 33.0014 31.2486 33 30.621V2.379C33.0014 1.75145 32.7542 1.14889 32.3125 0.703084C31.8708 0.257278 31.2706 0.00449245 30.643 0ZM9.97403 28.286H5.08303V12.537H9.98303V28.286H9.97403ZM7.52803 10.386C6.96712 10.386 6.41881 10.2197 5.95243 9.90805C5.48606 9.59642 5.12256 9.1535 4.90791 8.63529C4.69326 8.11708 4.6371 7.54685 4.74652 6.99672C4.85595 6.44659 5.12605 5.94127 5.52268 5.54465C5.9193 5.14802 6.42462 4.87792 6.97475 4.76849C7.52489 4.65907 8.09511 4.71523 8.61332 4.92988C9.13153 5.14453 9.57445 5.50802 9.88608 5.9744C10.1977 6.44078 10.364 6.98909 10.364 7.55C10.3638 8.30207 10.0649 9.02327 9.53309 9.55506C9.0013 10.0869 8.2801 10.3857 7.52803 10.386ZM28.308 28.286H23.417V20.625C23.417 18.798 23.38 16.448 20.876 16.448C18.327 16.448 17.937 18.437 17.937 20.492V28.285H13.045V12.537H17.737V14.688H17.8C18.2716 13.8856 18.9518 13.2258 19.7682 12.779C20.5847 12.3321 21.5069 12.1147 22.437 12.15C27.387 12.15 28.308 15.413 28.308 19.656V28.286Z" fill="white"/>
</svg>
