<svg width="33" height="33" viewBox="0 0 33 33" fill="none" xmlns="http://www.w3.org/2000/svg">
<path d="M16.505 8.03901C14.8315 8.03861 13.1954 8.5345 11.8038 9.46397C10.4121 10.3934 9.32733 11.7147 8.68664 13.2607C8.04594 14.8067 7.87809 16.508 8.20434 18.1494C8.53058 19.7908 9.33626 21.2986 10.5195 22.4821C11.7027 23.6656 13.2103 24.4717 14.8516 24.7983C16.4929 25.1249 18.1943 24.9575 19.7404 24.3171C21.2866 23.6768 22.6081 22.5923 23.5379 21.2009C24.4677 19.8094 24.964 18.1735 24.964 16.5C24.966 15.3885 24.7485 14.2875 24.3242 13.2602C23.8998 12.233 23.2768 11.2995 22.4909 10.5135C21.7051 9.72743 20.7718 9.10424 19.7446 8.67961C18.7174 8.25499 17.6165 8.03729 16.505 8.03901ZM16.505 22C15.4172 22 14.3538 21.6774 13.4494 21.0731C12.5449 20.4687 11.84 19.6098 11.4237 18.6048C11.0074 17.5998 10.8985 16.4939 11.1107 15.427C11.3229 14.3601 11.8467 13.3801 12.6159 12.6109C13.3851 11.8417 14.3651 11.3179 15.432 11.1057C16.4989 10.8935 17.6048 11.0024 18.6098 11.4187C19.6148 11.835 20.4737 12.5399 21.0781 13.4444C21.6824 14.3488 22.005 15.4122 22.005 16.5C22.0024 17.9579 21.4221 19.3553 20.3912 20.3862C19.3603 21.417 17.9629 21.9974 16.505 22ZM27.281 7.69301C27.2808 8.08306 27.165 8.4643 26.9482 8.78856C26.7314 9.11282 26.4234 9.36555 26.063 9.51482C25.7027 9.66408 25.3062 9.70319 24.9236 9.62719C24.541 9.55119 24.1895 9.3635 23.9136 9.08783C23.6376 8.81216 23.4496 8.46089 23.3732 8.07839C23.2968 7.69589 23.3355 7.29933 23.4844 6.93882C23.6333 6.5783 23.8857 6.27002 24.2098 6.0529C24.5338 5.83579 24.915 5.7196 25.305 5.71901C25.5646 5.71808 25.8218 5.7685 26.0618 5.86735C26.3018 5.9662 26.52 6.11153 26.7036 6.295C26.8872 6.47846 27.0328 6.69642 27.1319 6.93635C27.231 7.17627 27.2817 7.43342 27.281 7.69301ZM32.881 9.69301C32.9353 7.12775 31.978 4.64415 30.216 2.77901C28.3478 1.02399 25.8678 0.0683764 23.305 0.116006C20.581 -0.0389941 12.417 -0.0389941 9.69301 0.116006C7.13029 0.065272 4.64944 1.01928 2.78101 2.77401C1.02204 4.64108 0.0652415 7.12338 0.116006 9.68801C-0.0389941 12.413 -0.0389941 20.579 0.116006 23.303C0.0616873 25.8683 1.01899 28.3519 2.78101 30.217C4.64992 31.9725 7.13032 32.9291 9.69401 32.883C12.418 33.038 20.582 33.038 23.306 32.883C25.8711 32.9372 28.3545 31.9795 30.219 30.217C31.975 28.3481 32.9314 25.867 32.884 23.303C33.039 20.578 33.039 12.42 32.884 9.69501L32.881 9.69301ZM29.365 26.227C29.0849 26.9365 28.662 27.5809 28.1226 28.1202C27.5831 28.6594 26.9386 29.0821 26.229 29.362C24.057 30.224 18.904 30.025 16.504 30.025C14.104 30.025 8.94301 30.216 6.77901 29.362C6.06923 29.0819 5.42461 28.6589 4.88514 28.1193C4.34567 27.5796 3.92288 26.9349 3.64301 26.225C2.78201 24.053 2.98001 18.898 2.98001 16.498C2.98001 14.098 2.78901 8.93601 3.64301 6.77101C3.92288 6.06142 4.34558 5.41692 4.88486 4.87746C5.42414 4.33801 6.06851 3.91511 6.77801 3.63501C8.95001 2.77301 14.103 2.97201 16.503 2.97201C18.903 2.97201 24.064 2.78101 26.228 3.63501C26.938 3.91499 27.5828 4.33794 28.1224 4.87758C28.6621 5.41723 29.085 6.06205 29.365 6.77201C30.226 8.94401 30.028 14.099 30.028 16.499C30.028 18.899 30.226 24.062 29.365 26.227Z" fill="white"/>
</svg>
