<svg width="478" height="46" viewBox="0 0 478 46" fill="none" xmlns="http://www.w3.org/2000/svg">
<path d="M20.4355 2.44629C22.2357 2.62858 23.8535 3.02734 25.2891 3.64258C26.7246 4.25781 27.9437 5.10091 28.9463 6.17188C29.9717 7.22005 30.7578 8.49609 31.3047 10C31.8516 11.5039 32.125 13.2471 32.125 15.2295C32.125 16.4372 32.0111 17.5993 31.7832 18.7158C31.5781 19.8096 31.2249 20.8464 30.7236 21.8262C30.2223 22.806 29.5615 23.6833 28.7412 24.458C27.9437 25.2327 26.9525 25.8822 25.7676 26.4062C24.765 26.8392 23.7282 27.1696 22.6572 27.3975C21.5863 27.6253 20.4128 27.7962 19.1367 27.9102C17.8607 28.0241 16.4479 28.0924 14.8984 28.1152C13.3717 28.138 11.6514 28.1494 9.7373 28.1494L9.80566 44.7949L5.19141 44.7266L5.25977 9.35059C5.25977 7.73275 4.81543 6.50228 3.92676 5.65918C3.06087 4.79329 1.81901 4.12109 0.201172 3.64258V2.20703C2.82161 2.20703 5.10026 2.20703 7.03711 2.20703C8.99674 2.20703 10.6602 2.20703 12.0273 2.20703C13.4173 2.20703 14.568 2.21842 15.4795 2.24121C16.4137 2.264 17.1885 2.28678 17.8037 2.30957C18.4417 2.30957 18.9544 2.33236 19.3418 2.37793C19.7292 2.40072 20.0938 2.4235 20.4355 2.44629ZM18.7949 24.5605C19.9798 24.5605 21.0964 24.3327 22.1445 23.877C23.1927 23.3984 24.1042 22.7262 24.8789 21.8604C25.6764 20.9945 26.3031 19.9577 26.7588 18.75C27.2145 17.5195 27.4424 16.1751 27.4424 14.7168C27.4652 13.1901 27.2487 11.8457 26.793 10.6836C26.3372 9.52148 25.7106 8.55306 24.9131 7.77832C24.1156 6.98079 23.1927 6.38835 22.1445 6.00098C21.0964 5.59082 19.9798 5.38574 18.7949 5.38574H9.7373V24.5605H18.7949ZM56.9395 1.52344C58.9219 1.52344 60.8359 1.78548 62.6816 2.30957C64.5501 2.83366 66.2819 3.57422 67.877 4.53125C69.4948 5.46549 70.9645 6.59342 72.2861 7.91504C73.6077 9.23665 74.7357 10.7064 75.6699 12.3242C76.6042 13.9193 77.3333 15.6624 77.8574 17.5537C78.3815 19.4222 78.6436 21.359 78.6436 23.3643C78.6436 25.3923 78.3815 27.3405 77.8574 29.209C77.3333 31.0547 76.6042 32.7865 75.6699 34.4043C74.7357 35.9993 73.6077 37.4577 72.2861 38.7793C70.9645 40.0781 69.4948 41.1947 67.877 42.1289C66.2819 43.0632 64.5501 43.7923 62.6816 44.3164C60.8359 44.8177 58.9219 45.0684 56.9395 45.0684C54.9115 45.0684 52.9632 44.8177 51.0947 44.3164C49.2262 43.7923 47.4831 43.0632 45.8652 42.1289C44.2702 41.1947 42.8118 40.0781 41.4902 38.7793C40.1686 37.4577 39.0293 35.9993 38.0723 34.4043C37.138 32.7865 36.4089 31.0547 35.8848 29.209C35.3607 27.3405 35.0986 25.3923 35.0986 23.3643C35.0986 21.359 35.3607 19.4222 35.8848 17.5537C36.4089 15.6624 37.138 13.9193 38.0723 12.3242C39.0293 10.7064 40.1686 9.23665 41.4902 7.91504C42.8118 6.59342 44.2702 5.46549 45.8652 4.53125C47.4831 3.57422 49.2262 2.83366 51.0947 2.30957C52.9632 1.78548 54.9115 1.52344 56.9395 1.52344ZM56.9395 40.8301C59.332 40.8301 61.5879 40.3743 63.707 39.4629C65.849 38.5286 67.7061 37.2754 69.2783 35.7031C70.8734 34.1081 72.138 32.251 73.0723 30.1318C74.0065 28.0127 74.4736 25.7568 74.4736 23.3643C74.4736 20.9489 74.0065 18.6702 73.0723 16.5283C72.138 14.3864 70.8734 12.5179 69.2783 10.9229C67.7061 9.30501 65.849 8.02897 63.707 7.09473C61.5879 6.16048 59.332 5.69336 56.9395 5.69336C54.5013 5.69336 52.2113 6.16048 50.0693 7.09473C47.9502 8.02897 46.0931 9.30501 44.498 10.9229C42.9258 12.5179 41.6725 14.3864 40.7383 16.5283C39.804 18.6702 39.3369 20.9489 39.3369 23.3643C39.3369 25.7568 39.804 28.0127 40.7383 30.1318C41.6725 32.251 42.9258 34.1081 44.498 35.7031C46.0931 37.2754 47.9502 38.5286 50.0693 39.4629C52.2113 40.3743 54.5013 40.8301 56.9395 40.8301ZM113.575 44.0088H108.106L100.143 27.6367C99.9147 27.6595 99.6185 27.6709 99.2539 27.6709C98.8893 27.6709 98.4792 27.6823 98.0234 27.7051C97.5905 27.7051 97.112 27.7165 96.5879 27.7393C96.0866 27.7393 95.5967 27.7393 95.1182 27.7393C93.9788 27.762 92.7598 27.762 91.4609 27.7393L91.5635 44.0088L86.9492 44.0771L87.0176 9.24805C87.0176 8.3138 86.915 7.58464 86.71 7.06055C86.5277 6.53646 86.3112 6.10352 86.0605 5.76172C85.901 5.60221 85.7301 5.43132 85.5479 5.24902C85.3656 5.06673 85.1263 4.88444 84.8301 4.70215C84.5339 4.49707 84.1579 4.30339 83.7021 4.12109C83.2692 3.9388 82.7223 3.7679 82.0615 3.6084V2.20703C85.5934 2.20703 88.6696 2.18424 91.29 2.13867C93.9105 2.0931 96.2119 2.11589 98.1943 2.20703C100.177 2.27539 101.909 2.4349 103.39 2.68555C104.894 2.91341 106.284 3.31217 107.56 3.88184C108.471 4.29199 109.28 4.82747 109.986 5.48828C110.715 6.1263 111.342 6.91243 111.866 7.84668C112.436 8.68978 112.857 9.71517 113.131 10.9229C113.427 12.1305 113.575 13.4749 113.575 14.9561C113.575 16.5511 113.404 17.9753 113.062 19.2285C112.743 20.4818 112.231 21.5983 111.524 22.5781C110.818 23.5352 109.918 24.3783 108.824 25.1074C107.73 25.8138 106.409 26.429 104.859 26.9531L113.575 44.0088ZM100.45 24.2529C101.612 24.2529 102.706 24.0251 103.731 23.5693C104.78 23.0908 105.691 22.43 106.466 21.5869C107.241 20.7438 107.856 19.7184 108.312 18.5107C108.767 17.3031 108.995 15.9587 108.995 14.4775C109.018 12.9964 108.801 11.6862 108.346 10.5469C107.89 9.40755 107.275 8.46191 106.5 7.70996C105.725 6.93522 104.814 6.35417 103.766 5.9668C102.717 5.57943 101.612 5.38574 100.45 5.38574H91.5635V24.2529H100.45ZM145.738 7.40234C144.508 6.90104 143.198 6.42253 141.808 5.9668C140.44 5.48828 139.073 5.15788 137.706 4.97559C136.339 4.77051 134.994 4.77051 133.673 4.97559C132.351 5.18066 131.132 5.70475 130.016 6.54785C129.332 7.11751 128.819 7.77832 128.478 8.53027C128.159 9.28223 127.999 10.1025 127.999 10.9912C127.999 12.1761 128.238 13.1787 128.717 13.999C129.195 14.8193 129.811 15.6055 130.562 16.3574C131.747 17.2233 132.966 17.9867 134.22 18.6475C135.473 19.3083 136.726 19.9577 137.979 20.5957C139.256 21.2337 140.475 21.9059 141.637 22.6123C142.822 23.3187 143.927 24.139 144.952 25.0732C145.864 25.9619 146.593 26.9531 147.14 28.0469C147.709 29.1406 148.097 30.2799 148.302 31.4648C148.507 32.627 148.518 33.8118 148.336 35.0195C148.176 36.2272 147.823 37.3779 147.276 38.4717C146.684 39.7477 145.852 40.8187 144.781 41.6846C143.71 42.5277 142.537 43.1999 141.261 43.7012C140.007 44.2025 138.686 44.5671 137.296 44.7949C135.906 45 134.584 45.1025 133.331 45.1025C131.576 45.1025 129.879 44.9772 128.238 44.7266C126.598 44.4531 124.98 44.1455 123.385 43.8037V39.5996C125.162 40.3971 126.939 41.0465 128.717 41.5479C130.517 42.0492 132.363 42.2998 134.254 42.2998C135.598 42.2998 136.806 42.1403 137.877 41.8213C138.948 41.5023 139.859 41.0238 140.611 40.3857C142.161 38.973 142.936 37.0133 142.936 34.5068C142.936 33.3675 142.685 32.2965 142.184 31.2939C141.705 30.2913 141.056 29.4482 140.235 28.7646C139.073 27.9671 137.866 27.238 136.612 26.5771C135.359 25.9163 134.117 25.2669 132.887 24.6289C131.656 23.9681 130.471 23.2845 129.332 22.5781C128.193 21.849 127.156 21.0173 126.222 20.083C124.08 17.9411 123.009 15.4232 123.009 12.5293C123.009 9.20247 124.205 6.65039 126.598 4.87305C127.441 4.21224 128.364 3.68815 129.366 3.30078C130.392 2.89062 131.451 2.5944 132.545 2.41211C133.661 2.20703 134.801 2.0931 135.963 2.07031C137.148 2.04753 138.299 2.08171 139.415 2.17285C140.554 2.264 141.66 2.40072 142.73 2.58301C143.824 2.74251 144.827 2.9248 145.738 3.12988V7.40234ZM163.272 32.6953V44.3164H158.316V9.24805C158.316 8.29102 158.214 7.55046 158.009 7.02637C157.804 6.47949 157.576 6.04655 157.325 5.72754C157.166 5.54525 156.983 5.35156 156.778 5.14648C156.596 4.91862 156.357 4.71354 156.061 4.53125C155.764 4.34896 155.388 4.16667 154.933 3.98438C154.5 3.7793 153.953 3.59701 153.292 3.4375V2.20703H163.272V32.6953ZM210.611 45H205.758L199.879 31.6016H181.319L175.44 45H170.553L186.788 7.60742C186.856 7.3112 186.913 7.04915 186.959 6.82129C187.005 6.59342 187.027 6.39974 187.027 6.24023C187.027 5.51107 186.594 4.93001 185.729 4.49707C185.455 4.31478 185.17 4.16667 184.874 4.05273C184.601 3.9388 184.361 3.84766 184.156 3.7793C183.883 3.68815 183.621 3.63118 183.37 3.6084V2.13867H189.146H191.949L210.611 45ZM198.102 27.6367L190.582 10.5469L183.062 27.6367H198.102ZM257.984 37.9248C258.349 38.3122 258.873 38.8818 259.557 39.6338C260.263 40.3857 260.981 41.1719 261.71 41.9922C262.462 42.7897 263.168 43.5417 263.829 44.248C264.513 44.9316 265.025 45.4102 265.367 45.6836H259.522C259.317 45.5924 258.998 45.319 258.565 44.8633C258.132 44.4076 257.665 43.9062 257.164 43.3594C256.686 42.8125 256.23 42.2884 255.797 41.7871C255.387 41.263 255.09 40.887 254.908 40.6592C253.313 42.2314 251.513 43.4619 249.508 44.3506C247.503 45.2393 245.338 45.6836 243.014 45.6836C241.168 45.6836 239.539 45.3874 238.126 44.7949C236.713 44.2025 235.517 43.3936 234.537 42.3682C233.58 41.3428 232.851 40.1579 232.35 38.8135C231.871 37.4463 231.632 36.0107 231.632 34.5068C231.632 33.4359 231.837 32.3877 232.247 31.3623C232.657 30.3141 233.193 29.3115 233.854 28.3545C234.514 27.3747 235.255 26.4518 236.075 25.5859C236.918 24.7201 237.761 23.9339 238.604 23.2275C239.448 22.4984 240.257 21.8717 241.031 21.3477C241.806 20.8008 242.467 20.3678 243.014 20.0488C242.581 18.3854 242.353 16.779 242.33 15.2295C242.33 13.68 242.501 12.1305 242.843 10.5811C243.23 9.09993 243.754 7.78971 244.415 6.65039C245.099 5.48828 245.896 4.50846 246.808 3.71094C247.742 2.91341 248.779 2.30957 249.918 1.89941C251.08 1.48926 252.345 1.28418 253.712 1.28418C254.737 1.28418 255.717 1.40951 256.651 1.66016C257.586 1.91081 258.44 2.264 259.215 2.71973C259.99 3.17546 260.639 3.71094 261.163 4.32617C261.71 4.94141 262.086 5.59082 262.291 6.27441C262.382 6.70736 262.428 7.08333 262.428 7.40234C262.451 7.72135 262.462 8.08594 262.462 8.49609H258.189C258.189 8.35938 258.178 8.21126 258.155 8.05176C258.132 7.93783 258.098 7.8125 258.053 7.67578C258.03 7.51628 258.007 7.39095 257.984 7.2998C257.893 7.07194 257.722 6.84408 257.472 6.61621C257.221 6.36556 256.902 6.1377 256.515 5.93262C256.15 5.72754 255.729 5.56803 255.25 5.4541C254.771 5.31738 254.259 5.24902 253.712 5.24902C253.279 5.27181 252.755 5.36296 252.14 5.52246C251.524 5.68197 250.898 5.98958 250.26 6.44531C249.645 6.87826 249.052 7.50488 248.482 8.3252C247.936 9.14551 247.491 10.2507 247.149 11.6406C246.83 12.8255 246.682 14.056 246.705 15.332C246.751 16.6081 246.922 17.8841 247.218 19.1602C247.514 20.4362 247.924 21.7236 248.448 23.0225C248.995 24.3213 249.599 25.5973 250.26 26.8506C250.921 28.0811 251.627 29.2887 252.379 30.4736C253.154 31.6585 253.928 32.7751 254.703 33.8232C255.387 32.5244 256.036 31.1344 256.651 29.6533C257.267 28.1722 257.711 26.7367 257.984 25.3467C257.984 25.1188 257.916 24.834 257.779 24.4922C257.665 24.1276 257.506 23.8428 257.301 23.6377C257.164 23.501 257.016 23.3643 256.856 23.2275C256.72 23.068 256.537 22.9199 256.31 22.7832C256.104 22.6237 255.831 22.4756 255.489 22.3389C255.147 22.1794 254.715 22.0426 254.19 21.9287V20.8691H262.633C262.633 22.4414 262.53 23.877 262.325 25.1758C262.143 26.4746 261.847 27.7279 261.437 28.9355C261.049 30.1432 260.559 31.3623 259.967 32.5928C259.397 33.8232 258.736 35.1449 257.984 36.5576C257.984 36.6488 257.927 36.7741 257.813 36.9336C257.7 37.0931 257.643 37.2526 257.643 37.4121C257.643 37.526 257.7 37.6286 257.813 37.7197C257.927 37.7881 257.984 37.8564 257.984 37.9248ZM243.185 41.8896C245.007 41.8896 246.682 41.5251 248.209 40.7959C249.736 40.0667 251.16 39.0641 252.481 37.7881C251.707 36.8311 250.921 35.8171 250.123 34.7461C249.326 33.6523 248.551 32.513 247.799 31.3281C247.07 30.1204 246.375 28.8786 245.714 27.6025C245.076 26.3037 244.518 24.9821 244.039 23.6377C243.264 24.2529 242.398 24.9821 241.441 25.8252C240.484 26.6683 239.584 27.5798 238.741 28.5596C237.921 29.5394 237.215 30.542 236.622 31.5674C236.052 32.57 235.768 33.5498 235.768 34.5068C235.768 35.5778 235.961 36.569 236.349 37.4805C236.736 38.3691 237.26 39.1439 237.921 39.8047C238.604 40.4655 239.391 40.9782 240.279 41.3428C241.168 41.7074 242.136 41.8896 243.185 41.8896ZM323.883 45H319.029L313.15 31.6016H294.591L288.712 45H283.824L300.06 7.60742C300.128 7.3112 300.185 7.04915 300.23 6.82129C300.276 6.59342 300.299 6.39974 300.299 6.24023C300.299 5.51107 299.866 4.93001 299 4.49707C298.727 4.31478 298.442 4.16667 298.146 4.05273C297.872 3.9388 297.633 3.84766 297.428 3.7793C297.154 3.68815 296.892 3.63118 296.642 3.6084V2.13867H302.418H305.221L323.883 45ZM311.373 27.6367L303.854 10.5469L296.334 27.6367H311.373ZM365.001 44.7607H361.446L334.889 11.1963V44.8975H331.095V7.16309C330.935 6.59342 330.662 6.06934 330.274 5.59082C329.933 5.20345 329.431 4.82747 328.771 4.46289C328.11 4.09831 327.232 3.89323 326.139 3.84766V2.27539L334.786 2.30957L361.31 35.2246V2.30957H365.001V44.7607ZM408.272 23.9453V39.9414C408.09 40.1693 407.817 40.4199 407.452 40.6934C407.156 40.944 406.769 41.2288 406.29 41.5479C405.834 41.8669 405.276 42.2201 404.615 42.6074C403.066 43.5872 401.357 44.2708 399.488 44.6582C397.643 45.0228 395.774 45.2051 393.883 45.2051C391.262 45.2051 388.801 44.7949 386.5 43.9746C384.221 43.1315 382.171 41.9694 380.348 40.4883C378.525 39.0072 376.952 37.264 375.631 35.2588C374.309 33.2308 373.318 31.0319 372.657 28.6621C372.452 27.5 372.315 26.3379 372.247 25.1758C372.179 24.0137 372.19 22.8516 372.281 21.6895C372.372 20.5046 372.543 19.3197 372.794 18.1348C373.067 16.9499 373.443 15.7422 373.922 14.5117C374.628 12.8027 375.54 11.2305 376.656 9.79492C377.796 8.35938 379.083 7.09473 380.519 6.00098C381.954 4.90723 383.504 3.99577 385.167 3.2666C386.853 2.53743 388.585 2.02474 390.362 1.72852C392.14 1.40951 393.951 1.32975 395.797 1.48926C397.643 1.64876 399.443 2.05892 401.197 2.71973C401.881 3.01595 402.485 3.30078 403.009 3.57422C403.556 3.82487 404.091 4.15527 404.615 4.56543C404.82 4.36035 405.014 4.16667 405.196 3.98438C405.401 3.7793 405.595 3.54004 405.777 3.2666C405.982 2.97038 406.176 2.5944 406.358 2.13867C406.563 1.68294 406.769 1.09049 406.974 0.361328H408.272V12.7002H407.76C407.281 11.9938 406.677 11.3102 405.948 10.6494C405.219 9.98861 404.433 9.38477 403.59 8.83789C402.747 8.29102 401.858 7.8125 400.924 7.40234C400.012 6.9694 399.146 6.639 398.326 6.41113C396.936 5.97819 395.455 5.7959 393.883 5.86426C392.333 5.93262 390.807 6.18327 389.303 6.61621C387.822 7.02637 386.432 7.61882 385.133 8.39355C383.834 9.16829 382.729 10.0798 381.817 11.1279C380.382 12.723 379.231 14.5801 378.365 16.6992C377.499 18.8184 377.066 21.0628 377.066 23.4326C377.066 25.7568 377.499 27.9671 378.365 30.0635C379.254 32.137 380.462 33.9714 381.988 35.5664C383.515 37.1387 385.315 38.3919 387.389 39.3262C389.485 40.2604 391.729 40.7275 394.122 40.7275C395.056 40.7275 395.934 40.6706 396.754 40.5566C397.574 40.4199 398.36 40.2148 399.112 39.9414C399.887 39.668 400.662 39.3376 401.437 38.9502C402.211 38.5628 403.009 38.1071 403.829 37.583V28.4229H398.839C399.522 27.762 400.126 27.0557 400.65 26.3037C401.174 25.529 401.63 24.7428 402.018 23.9453H408.272ZM444.093 41.0693V45H417.672V8.80371C417.581 7.91504 417.444 7.23145 417.262 6.75293C417.079 6.27441 416.749 5.81868 416.271 5.38574C415.951 5.06673 415.496 4.73633 414.903 4.39453C414.311 4.02995 413.525 3.73372 412.545 3.50586L412.511 2.17285H444.093V6.44531H422.491V21.3818H441.734V25.3467H422.491V41.0693H444.093ZM477.076 40.9326V45.0342H453.766V9.45312C453.766 8.49609 453.663 7.74414 453.458 7.19727C453.253 6.6276 453.014 6.18327 452.74 5.86426C452.581 5.70475 452.41 5.53385 452.228 5.35156C452.068 5.16927 451.829 4.98698 451.51 4.80469C451.214 4.59961 450.838 4.40592 450.382 4.22363C449.949 4.04134 449.379 3.87044 448.673 3.71094V2.27539L458.79 2.17285V40.9326H477.076Z" fill="white"/>
</svg>
